<svg width="1933" height="1159" viewBox="0 0 1933 1159" fill="none" xmlns="http://www.w3.org/2000/svg">
<rect width="1920" height="1080" fill="#F1F4FD"/>
<rect width="1920" height="1080" fill="url(#paint0_linear_9_37)" fill-opacity="0.05"/>
<path d="M664.234 393.92H686.89C705.834 393.92 719.061 398.4 726.57 407.36C734.165 416.32 737.962 426.987 737.962 439.36C737.962 447.979 736.341 455.957 733.098 463.296C729.855 470.549 724.479 476.48 716.97 481.088C709.546 485.696 699.775 488 687.658 488H664.234V393.92ZM689.194 475.328C700.97 475.328 709.503 472 714.794 465.344C720.17 458.603 722.858 450.155 722.858 440C722.858 430.101 720.17 422.037 714.794 415.808C709.418 409.579 700.885 406.464 689.194 406.464H678.57V475.328H689.194ZM752.487 429.248H766.823V488H752.487V429.248ZM759.527 418.24C756.882 418.24 754.663 417.344 752.871 415.552C751.079 413.76 750.183 411.541 750.183 408.896C750.183 406.507 751.079 404.459 752.871 402.752C754.663 401.045 756.882 400.192 759.527 400.192C762.087 400.192 764.263 401.045 766.055 402.752C767.847 404.459 768.743 406.507 768.743 408.896C768.743 411.541 767.847 413.76 766.055 415.552C764.348 417.344 762.172 418.24 759.527 418.24ZM813.355 489.28C807.552 489.28 802.304 488.043 797.611 485.568C793.003 483.008 789.334 479.381 786.603 474.688C783.872 469.909 782.507 464.32 782.507 457.92C782.507 451.861 783.744 446.571 786.219 442.048C788.779 437.44 792.32 433.899 796.843 431.424C801.451 428.949 806.742 427.712 812.715 427.712C817.238 427.712 821.12 428.309 824.363 429.504C827.691 430.613 830.294 432.021 832.171 433.728L826.027 444.864C822.443 441.28 818.39 439.488 813.867 439.488C808.406 439.488 804.224 441.152 801.323 444.48C798.507 447.808 797.099 452.245 797.099 457.792C797.099 464.107 798.55 469.013 801.451 472.512C804.438 476.011 808.576 477.76 813.867 477.76C816.512 477.76 819.072 477.376 821.547 476.608C824.107 475.84 826.07 474.944 827.435 473.92L832.427 483.648C830.55 485.099 827.904 486.421 824.491 487.616C821.163 488.725 817.451 489.28 813.355 489.28ZM850.708 440.512H840.34V429.248H850.708V405.312L864.66 402.24V429.248H878.228V440.512H864.66V488H850.708V440.512ZM890.487 429.248H904.823V488H890.487V429.248ZM897.527 418.24C894.882 418.24 892.663 417.344 890.871 415.552C889.079 413.76 888.183 411.541 888.183 408.896C888.183 406.507 889.079 404.459 890.871 402.752C892.663 401.045 894.882 400.192 897.527 400.192C900.087 400.192 902.263 401.045 904.055 402.752C905.847 404.459 906.743 406.507 906.743 408.896C906.743 411.541 905.847 413.76 904.055 415.552C902.348 417.344 900.172 418.24 897.527 418.24ZM951.355 489.28C945.296 489.28 939.92 487.915 935.227 485.184C930.534 482.453 926.907 478.741 924.347 474.048C921.787 469.355 920.507 464.149 920.507 458.432C920.507 452.8 921.744 447.637 924.219 442.944C926.779 438.251 930.406 434.539 935.099 431.808C939.792 429.077 945.211 427.712 951.355 427.712C957.499 427.712 962.875 429.077 967.483 431.808C972.176 434.539 975.76 438.251 978.235 442.944C980.795 447.637 982.075 452.8 982.075 458.432C982.075 464.149 980.795 469.355 978.235 474.048C975.675 478.741 972.048 482.453 967.355 485.184C962.747 487.915 957.414 489.28 951.355 489.28ZM951.739 478.016C956.688 478.016 960.571 476.181 963.387 472.512C966.288 468.843 967.739 464.235 967.739 458.688C967.739 453.141 966.203 448.491 963.131 444.736C960.059 440.896 956.006 438.976 950.971 438.976C946.107 438.976 942.182 440.853 939.195 444.608C936.294 448.363 934.843 453.056 934.843 458.688C934.843 464.149 936.422 468.757 939.579 472.512C942.736 476.181 946.79 478.016 951.739 478.016ZM996.838 429.248H1010.41L1010.53 440C1012.16 436.416 1014.72 433.472 1018.21 431.168C1021.71 428.864 1025.81 427.712 1030.5 427.712C1036.56 427.712 1041.21 428.992 1044.45 431.552C1047.7 434.027 1049.87 437.525 1050.98 442.048C1052.09 446.571 1052.65 452.459 1052.65 459.712V488H1038.82V460.096C1038.82 452.672 1038.1 447.339 1036.65 444.096C1035.2 440.768 1032.21 439.104 1027.69 439.104C1025.13 439.104 1022.52 439.915 1019.88 441.536C1017.23 443.072 1015.01 445.333 1013.22 448.32C1011.52 451.307 1010.66 454.805 1010.66 458.816V488H996.838V429.248ZM1096.45 489.28C1091.16 489.28 1086.25 488.043 1081.73 485.568C1077.29 483.008 1073.71 479.424 1070.98 474.816C1068.33 470.123 1067.01 464.661 1067.01 458.432C1067.01 452.288 1068.16 446.912 1070.46 442.304C1072.85 437.696 1076.22 434.112 1080.58 431.552C1084.93 428.992 1090.05 427.712 1095.94 427.712C1099.35 427.712 1102.55 428.309 1105.54 429.504C1108.52 430.699 1111.04 432.192 1113.09 433.984C1115.14 435.691 1116.5 437.397 1117.18 439.104L1117.44 429.248H1130.62V488H1117.57L1117.31 477.632C1115.86 480.704 1113.22 483.435 1109.38 485.824C1105.54 488.128 1101.23 489.28 1096.45 489.28ZM1098.75 477.76C1103.62 477.76 1107.71 476.096 1111.04 472.768C1114.37 469.355 1116.03 464.917 1116.03 459.456V458.56C1116.03 454.891 1115.26 451.605 1113.73 448.704C1112.19 445.803 1110.1 443.541 1107.46 441.92C1104.81 440.299 1101.91 439.488 1098.75 439.488C1093.29 439.488 1089.07 441.28 1086.08 444.864C1083.09 448.363 1081.6 452.928 1081.6 458.56C1081.6 464.277 1083.05 468.928 1085.95 472.512C1088.94 476.011 1093.2 477.76 1098.75 477.76ZM1148.83 429.248H1162.65V440.768C1164.02 436.843 1166.24 433.685 1169.31 431.296C1172.38 428.907 1175.88 427.712 1179.81 427.712C1182.54 427.712 1184.41 427.968 1185.44 428.48L1183.52 442.432C1182.75 441.92 1181.09 441.664 1178.53 441.664C1174.51 441.664 1170.85 442.944 1167.52 445.504C1164.27 448.064 1162.65 452.16 1162.65 457.792V488H1148.83V429.248ZM1212.11 489.792L1187.79 429.248H1203.41L1215.95 466.624L1218.77 475.712L1221.58 466.624L1234.77 429.248H1249.87L1213.77 520.256H1199.44L1212.11 489.792Z" fill="#131339"/>
<path d="M661.928 325.96H682.536V332.232H669.032V345.224H679.912V351.624H669.032V366.664H684.648V373H661.928V325.96ZM691.419 343.624H698.203L698.267 349C699.078 347.208 700.358 345.736 702.107 344.584C703.856 343.432 705.904 342.856 708.251 342.856C711.28 342.856 713.606 343.496 715.227 344.776C716.848 346.013 717.936 347.763 718.491 350.024C719.046 352.285 719.323 355.229 719.323 358.856V373H712.411V359.048C712.411 355.336 712.048 352.669 711.323 351.048C710.598 349.384 709.104 348.552 706.843 348.552C705.563 348.552 704.262 348.957 702.939 349.768C701.616 350.536 700.507 351.667 699.611 353.16C698.758 354.653 698.331 356.403 698.331 358.408V373H691.419V343.624ZM742.503 388.36C740.328 388.36 738.173 388.061 736.04 387.464C733.949 386.867 732.456 386.312 731.56 385.8L733.095 379.4C735.912 381.235 738.984 382.152 742.312 382.152C744.872 382.152 747.026 381.533 748.776 380.296C750.525 379.059 751.421 376.648 751.464 373.064V367.816C750.568 369.48 749.117 370.867 747.112 371.976C745.106 373.085 742.888 373.64 740.456 373.64C737.896 373.64 735.549 373.021 733.416 371.784C731.282 370.504 729.597 368.691 728.36 366.344C727.122 363.997 726.504 361.267 726.504 358.152C726.504 355.165 727.08 352.52 728.232 350.216C729.426 347.869 731.112 346.056 733.288 344.776C735.464 343.496 738.002 342.856 740.904 342.856C742.61 342.856 744.21 343.155 745.704 343.752C747.197 344.349 748.456 345.096 749.48 345.992C750.546 346.845 751.25 347.699 751.592 348.552L751.72 343.624H758.248V372.808C758.248 377.8 756.968 381.64 754.408 384.328C751.848 387.016 747.88 388.36 742.503 388.36ZM742.376 367.816C744.808 367.816 746.856 366.984 748.52 365.32C750.184 363.613 751.016 361.395 751.016 358.664V358.216C751.016 356.381 750.632 354.739 749.864 353.288C749.096 351.837 748.05 350.707 746.728 349.896C745.405 349.085 743.954 348.68 742.376 348.68C739.645 348.68 737.533 349.576 736.04 351.368C734.546 353.117 733.8 355.4 733.8 358.216C733.8 361.075 734.525 363.4 735.976 365.192C737.469 366.941 739.602 367.816 742.376 367.816ZM767.683 325.96H774.531V373H767.683V325.96ZM784.744 343.624H791.912V373H784.744V343.624ZM788.264 338.12C786.941 338.12 785.832 337.672 784.936 336.776C784.04 335.88 783.592 334.771 783.592 333.448C783.592 332.253 784.04 331.229 784.936 330.376C785.832 329.523 786.941 329.096 788.264 329.096C789.544 329.096 790.632 329.523 791.528 330.376C792.424 331.229 792.872 332.253 792.872 333.448C792.872 334.771 792.424 335.88 791.528 336.776C790.674 337.672 789.586 338.12 788.264 338.12ZM811.594 373.64C809.546 373.64 807.412 373.384 805.194 372.872C803.018 372.317 801.46 371.677 800.522 370.952L802.826 365.512C805.386 367.304 808.308 368.2 811.594 368.2C814.879 368.2 816.522 367.24 816.522 365.32C816.522 364.467 816.18 363.805 815.498 363.336C814.815 362.867 813.599 362.312 811.85 361.672L809.418 360.776C806.858 359.752 804.831 358.536 803.338 357.128C801.844 355.677 801.098 353.779 801.098 351.432C801.098 348.744 802.143 346.653 804.234 345.16C806.367 343.624 809.204 342.856 812.746 342.856C814.495 342.856 816.202 343.048 817.866 343.432C819.572 343.816 820.874 344.307 821.77 344.904L819.274 350.408C818.719 349.853 817.823 349.384 816.586 349C815.391 348.573 814.047 348.36 812.554 348.36C809.524 348.36 808.01 349.277 808.01 351.112C808.01 352.136 808.415 352.925 809.226 353.48C810.036 353.992 811.359 354.568 813.194 355.208C813.364 355.251 814.026 355.485 815.178 355.912C817.908 356.979 819.935 358.195 821.258 359.56C822.58 360.925 823.242 362.675 823.242 364.808C823.242 367.709 822.132 369.907 819.914 371.4C817.738 372.893 814.964 373.64 811.594 373.64ZM830.739 325.96H837.459V343.624L837.203 349.064C838.014 347.272 839.315 345.8 841.107 344.648C842.899 343.453 844.99 342.856 847.379 342.856C850.408 342.856 852.734 343.496 854.355 344.776C855.976 346.013 857.064 347.763 857.619 350.024C858.174 352.285 858.451 355.229 858.451 358.856V373H851.603V358.792C851.603 356.317 851.454 354.376 851.155 352.968C850.899 351.56 850.344 350.493 849.491 349.768C848.68 349.043 847.486 348.68 845.907 348.68C844.627 348.68 843.326 349.064 842.003 349.832C840.723 350.6 839.656 351.731 838.803 353.224C837.95 354.675 837.523 356.403 837.523 358.408V373H830.739V325.96Z" fill="#131339"/>
<line x1="697" y1="614.5" x2="1207" y2="614.5" stroke="#131339" stroke-opacity="0.36"/>
<path d="M702.928 594.24C701.968 594.24 701.016 594.072 700.072 593.736C699.128 593.4 698.448 593.024 698.032 592.608L699.304 590.328C699.64 590.632 700.16 590.952 700.864 591.288C701.584 591.608 702.272 591.768 702.928 591.768C703.776 591.768 704.464 591.568 704.992 591.168C705.536 590.768 705.808 590.216 705.808 589.512C705.808 588.968 705.664 588.496 705.376 588.096C705.088 587.696 704.736 587.368 704.32 587.112C703.904 586.84 703.312 586.512 702.544 586.128C701.632 585.68 701.008 585.344 700.672 585.12C699.12 584.08 698.344 582.64 698.344 580.8C698.344 579.28 698.848 578.12 699.856 577.32C700.864 576.504 702.136 576.096 703.672 576.096C705.32 576.096 706.72 576.568 707.872 577.512L706.6 579.696C706.296 579.376 705.864 579.104 705.304 578.88C704.76 578.64 704.176 578.52 703.552 578.52C702.752 578.52 702.12 578.704 701.656 579.072C701.208 579.424 700.984 579.952 700.984 580.656C700.984 581.152 701.128 581.6 701.416 582C701.704 582.384 702.064 582.72 702.496 583.008C702.944 583.296 703.544 583.648 704.296 584.064C705.016 584.464 705.568 584.784 705.952 585.024C706.336 585.248 706.696 585.52 707.032 585.84C707.496 586.256 707.872 586.752 708.16 587.328C708.448 587.904 708.592 588.536 708.592 589.224C708.592 590.296 708.344 591.208 707.848 591.96C707.368 592.712 706.696 593.28 705.832 593.664C704.984 594.048 704.016 594.24 702.928 594.24ZM716.521 594.24C715.209 594.24 714.113 593.984 713.233 593.472C712.353 592.944 711.705 592.248 711.289 591.384C710.873 590.504 710.665 589.544 710.665 588.504C710.665 587.336 710.905 586.312 711.385 585.432C711.881 584.552 712.561 583.88 713.425 583.416C714.289 582.936 715.265 582.696 716.353 582.696C718.049 582.696 719.305 583.168 720.121 584.112C720.953 585.04 721.369 586.352 721.369 588.048C721.369 588.48 721.345 588.928 721.297 589.392H713.377C713.553 590.368 713.897 591.072 714.409 591.504C714.937 591.936 715.665 592.152 716.593 592.152C717.361 592.152 717.993 592.088 718.489 591.96C718.985 591.832 719.441 591.656 719.857 591.432L720.649 593.28C720.249 593.536 719.705 593.76 719.017 593.952C718.329 594.144 717.497 594.24 716.521 594.24ZM718.849 587.592C718.865 586.6 718.649 585.904 718.201 585.504C717.753 585.088 717.113 584.88 716.281 584.88C714.601 584.88 713.633 585.784 713.377 587.592H718.849ZM728.959 594.24C727.967 594.24 727.047 594.008 726.199 593.544C725.367 593.064 724.695 592.392 724.183 591.528C723.687 590.648 723.439 589.624 723.439 588.456C723.439 587.304 723.655 586.296 724.087 585.432C724.535 584.568 725.167 583.896 725.983 583.416C726.799 582.936 727.759 582.696 728.863 582.696C729.503 582.696 730.103 582.808 730.663 583.032C731.223 583.256 731.695 583.536 732.079 583.872C732.463 584.192 732.719 584.512 732.847 584.832L732.895 582.984H735.367V594H732.919L732.871 592.056C732.599 592.632 732.103 593.144 731.383 593.592C730.663 594.024 729.855 594.24 728.959 594.24ZM729.391 592.08C730.303 592.08 731.071 591.768 731.695 591.144C732.319 590.504 732.631 589.672 732.631 588.648V588.48C732.631 587.792 732.487 587.176 732.199 586.632C731.911 586.088 731.519 585.664 731.023 585.36C730.527 585.056 729.983 584.904 729.391 584.904C728.367 584.904 727.575 585.24 727.015 585.912C726.455 586.568 726.175 587.424 726.175 588.48C726.175 589.552 726.447 590.424 726.991 591.096C727.551 591.752 728.351 592.08 729.391 592.08ZM738.78 582.984H741.372V585.144C741.628 584.408 742.044 583.816 742.62 583.368C743.196 582.92 743.852 582.696 744.588 582.696C745.1 582.696 745.452 582.744 745.644 582.84L745.284 585.456C745.14 585.36 744.828 585.312 744.348 585.312C743.596 585.312 742.908 585.552 742.284 586.032C741.676 586.512 741.372 587.28 741.372 588.336V594H738.78V582.984ZM752.613 594.24C751.525 594.24 750.541 594.008 749.661 593.544C748.797 593.064 748.109 592.384 747.597 591.504C747.085 590.608 746.829 589.56 746.829 588.36C746.829 587.224 747.061 586.232 747.525 585.384C748.005 584.52 748.669 583.856 749.517 583.392C750.381 582.928 751.373 582.696 752.493 582.696C753.341 582.696 754.069 582.808 754.677 583.032C755.301 583.24 755.789 583.504 756.141 583.824L754.989 585.912C754.317 585.24 753.557 584.904 752.709 584.904C751.685 584.904 750.901 585.216 750.357 585.84C749.829 586.464 749.565 587.296 749.565 588.336C749.565 589.52 749.837 590.44 750.381 591.096C750.941 591.752 751.717 592.08 752.709 592.08C753.205 592.08 753.685 592.008 754.149 591.864C754.629 591.72 754.997 591.552 755.253 591.36L756.189 593.184C755.837 593.456 755.341 593.704 754.701 593.928C754.077 594.136 753.381 594.24 752.613 594.24ZM758.777 576.36H761.297V582.984L761.201 585.024C761.505 584.352 761.993 583.8 762.665 583.368C763.337 582.92 764.121 582.696 765.017 582.696C766.153 582.696 767.025 582.936 767.633 583.416C768.241 583.88 768.649 584.536 768.857 585.384C769.065 586.232 769.169 587.336 769.169 588.696V594H766.601V588.672C766.601 587.744 766.545 587.016 766.433 586.488C766.337 585.96 766.129 585.56 765.809 585.288C765.505 585.016 765.057 584.88 764.465 584.88C763.985 584.88 763.497 585.024 763.001 585.312C762.521 585.6 762.121 586.024 761.801 586.584C761.481 587.128 761.321 587.776 761.321 588.528V594H758.777V576.36ZM774.238 594.24C773.758 594.24 773.35 594.08 773.014 593.76C772.678 593.424 772.51 593.016 772.51 592.536C772.51 592.04 772.67 591.632 772.99 591.312C773.326 590.976 773.742 590.808 774.238 590.808C774.734 590.808 775.142 590.976 775.462 591.312C775.798 591.632 775.966 592.04 775.966 592.536C775.966 593.016 775.798 593.424 775.462 593.76C775.142 594.08 774.734 594.24 774.238 594.24ZM781.222 594.24C780.742 594.24 780.334 594.08 779.998 593.76C779.662 593.424 779.494 593.016 779.494 592.536C779.494 592.04 779.654 591.632 779.974 591.312C780.31 590.976 780.726 590.808 781.222 590.808C781.718 590.808 782.126 590.976 782.446 591.312C782.782 591.632 782.95 592.04 782.95 592.536C782.95 593.016 782.782 593.424 782.446 593.76C782.126 594.08 781.718 594.24 781.222 594.24ZM788.207 594.24C787.727 594.24 787.319 594.08 786.983 593.76C786.647 593.424 786.479 593.016 786.479 592.536C786.479 592.04 786.639 591.632 786.959 591.312C787.295 590.976 787.711 590.808 788.207 590.808C788.703 590.808 789.111 590.976 789.431 591.312C789.767 591.632 789.935 592.04 789.935 592.536C789.935 593.016 789.767 593.424 789.431 593.76C789.111 594.08 788.703 594.24 788.207 594.24Z" fill="#131339" fill-opacity="0.36"/>
<path d="M1198.5 579.5C1198.5 586.647 1192.27 592.5 1184.5 592.5C1176.73 592.5 1170.5 586.647 1170.5 579.5C1170.5 572.353 1176.73 566.5 1184.5 566.5C1192.27 566.5 1198.5 572.353 1198.5 579.5Z" stroke="#131339" stroke-opacity="0.36"/>
<line y1="-0.5" x2="17.4552" y2="-0.5" transform="matrix(0.687476 0.726207 -0.687476 0.726207 1192.56 590.113)" stroke="#131339" stroke-opacity="0.36"/>
<g filter="url(#filter0_d_9_37)">
<path d="M665 956C665 939.431 678.431 926 695 926H1255C1271.57 926 1285 939.431 1285 956V1080H665V956Z" fill="#FAFBFF"/>
</g>
<path d="M1867 937C1867 928.716 1873.72 922 1882 922H1920V1017H1882C1873.72 1017 1867 1010.28 1867 1002V937Z" fill="#F1F4FD"/>
<g filter="url(#filter1_d_9_37)">
<path d="M1867 823C1867 814.716 1873.72 808 1882 808H1920V903H1882C1873.72 903 1867 896.284 1867 888V823Z" fill="#F1F4FD"/>
</g>
<path d="M1883.34 993.672L1901 985.176L1901 988.272L1897.54 989.784L1897.54 997.872L1901 999.384L1901 1002.38L1883.34 993.936L1883.34 993.672ZM1890.85 994.872L1895.12 996.792L1895.12 990.84L1890.87 992.736L1888.45 993.768L1888.45 993.816L1890.85 994.872ZM1901.24 977.338C1901.24 978.234 1901.02 979.042 1900.59 979.762C1900.14 980.466 1899.63 980.954 1899.06 981.226L1901 981.274L1901 983.77L1883.36 983.77L1883.36 981.226L1890.15 981.226L1892.02 981.346C1891.38 981.074 1890.84 980.546 1890.39 979.762C1889.93 978.962 1889.7 978.098 1889.7 977.17C1889.7 976.082 1889.94 975.138 1890.44 974.338C1890.92 973.522 1891.6 972.898 1892.48 972.466C1893.34 972.034 1894.35 971.818 1895.5 971.818C1896.67 971.818 1897.69 972.074 1898.55 972.586C1899.42 973.082 1900.08 973.754 1900.54 974.602C1901.01 975.434 1901.24 976.346 1901.24 977.338ZM1899.08 977.77C1899.08 976.73 1898.75 975.93 1898.1 975.37C1897.42 974.81 1896.56 974.53 1895.5 974.53C1894.43 974.53 1893.57 974.81 1892.91 975.37C1892.24 975.914 1891.9 976.714 1891.9 977.77C1891.9 978.682 1892.22 979.45 1892.86 980.074C1893.49 980.698 1894.31 981.01 1895.34 981.01L1895.5 981.01C1896.19 981.01 1896.81 980.866 1897.35 980.578C1897.9 980.274 1898.32 979.882 1898.62 979.402C1898.93 978.906 1899.08 978.362 1899.08 977.77ZM1901.24 963.918C1901.24 965.054 1900.98 966.062 1900.47 966.942C1899.96 967.822 1899.26 968.502 1898.38 968.982C1897.5 969.462 1896.53 969.702 1895.46 969.702C1894.4 969.702 1893.43 969.47 1892.55 969.006C1891.67 968.526 1890.98 967.846 1890.46 966.966C1889.95 966.086 1889.7 965.07 1889.7 963.918C1889.7 962.766 1889.95 961.758 1890.46 960.894C1890.98 960.014 1891.67 959.342 1892.55 958.878C1893.43 958.398 1894.4 958.158 1895.46 958.158C1896.53 958.158 1897.5 958.398 1898.38 958.878C1899.26 959.358 1899.96 960.038 1900.47 960.918C1900.98 961.782 1901.24 962.782 1901.24 963.918ZM1899.13 963.846C1899.13 962.918 1898.78 962.19 1898.1 961.662C1897.41 961.118 1896.54 960.846 1895.5 960.846C1894.46 960.846 1893.59 961.134 1892.89 961.71C1892.17 962.286 1891.81 963.046 1891.81 963.99C1891.81 964.902 1892.16 965.638 1892.86 966.198C1893.57 966.742 1894.45 967.014 1895.5 967.014C1896.53 967.014 1897.39 966.718 1898.1 966.126C1898.78 965.534 1899.13 964.774 1899.13 963.846ZM1901.24 951.574C1901.24 953.094 1900.79 954.142 1899.9 954.718C1899 955.278 1897.75 955.558 1896.15 955.558L1889.98 955.558L1889.98 952.966L1895.5 952.966C1896.42 952.966 1897.13 952.918 1897.64 952.822C1898.14 952.71 1898.5 952.502 1898.74 952.198C1898.98 951.878 1899.1 951.406 1899.1 950.782C1899.1 950.334 1898.98 949.902 1898.72 949.486C1898.46 949.07 1898.12 948.734 1897.69 948.478C1897.24 948.206 1896.75 948.07 1896.22 948.07L1889.98 948.07L1889.98 945.502L1901 945.502L1901 947.614L1899.39 947.902C1900.02 948.302 1900.48 948.806 1900.78 949.414C1901.09 950.006 1901.24 950.726 1901.24 951.574ZM1892.1 941.094L1892.1 943.038L1889.98 943.038L1889.98 941.094L1885.5 941.094L1884.92 938.478L1889.98 938.478L1889.98 935.934L1892.1 935.934L1892.1 938.478L1901 938.478L1901 941.094L1892.1 941.094ZM1901.24 884.248C1901.24 885.992 1900.84 887.552 1900.04 888.928C1899.24 890.304 1898.14 891.384 1896.75 892.168C1895.34 892.936 1893.77 893.32 1892.02 893.32C1890.33 893.32 1888.8 892.928 1887.44 892.144C1886.08 891.36 1885.02 890.272 1884.25 888.88C1883.48 887.488 1883.1 885.92 1883.1 884.176C1883.1 883.232 1883.18 882.384 1883.36 881.632C1883.52 880.864 1883.71 880.24 1883.94 879.76C1884.14 879.28 1884.33 878.952 1884.49 878.776L1886.74 879.832C1885.94 880.824 1885.54 882.288 1885.54 884.224C1885.54 885.504 1885.82 886.616 1886.38 887.56C1886.94 888.504 1887.7 889.224 1888.66 889.72C1889.62 890.216 1890.7 890.464 1891.88 890.464C1893.22 890.464 1894.42 890.2 1895.48 889.672C1896.54 889.128 1897.36 888.384 1897.95 887.44C1898.53 886.48 1898.82 885.4 1898.82 884.2C1898.82 883.448 1898.73 882.728 1898.55 882.04C1898.36 881.352 1898.06 880.768 1897.66 880.288L1894.26 880.288L1894.26 883.912L1891.78 883.912L1891.78 877.624L1898.7 877.624C1899.42 878.2 1900.02 879.072 1900.52 880.24C1901 881.392 1901.24 882.728 1901.24 884.248ZM1889.98 874.596L1889.98 871.908L1901 871.908L1901 874.596L1889.98 874.596ZM1887.92 873.276C1887.92 873.772 1887.75 874.188 1887.42 874.524C1887.08 874.86 1886.66 875.028 1886.17 875.028C1885.72 875.028 1885.34 874.86 1885.02 874.524C1884.7 874.188 1884.54 873.772 1884.54 873.276C1884.54 872.796 1884.7 872.388 1885.02 872.052C1885.34 871.716 1885.72 871.548 1886.17 871.548C1886.66 871.548 1887.08 871.716 1887.42 872.052C1887.75 872.372 1887.92 872.78 1887.92 873.276ZM1892.1 867.359L1892.1 869.303L1889.98 869.303L1889.98 867.359L1885.5 867.359L1884.92 864.743L1889.98 864.743L1889.98 862.199L1892.1 862.199L1892.1 864.743L1901 864.743L1901 867.359L1892.1 867.359ZM1883.36 859.973L1883.36 857.453L1889.98 857.453L1892.02 857.549C1891.35 857.245 1890.8 856.757 1890.37 856.085C1889.92 855.413 1889.7 854.629 1889.7 853.733C1889.7 852.597 1889.94 851.725 1890.42 851.117C1890.88 850.509 1891.54 850.101 1892.38 849.893C1893.23 849.685 1894.34 849.581 1895.7 849.581L1901 849.581L1901 852.149L1895.67 852.149C1894.74 852.149 1894.02 852.205 1893.49 852.317C1892.96 852.413 1892.56 852.621 1892.29 852.941C1892.02 853.245 1891.88 853.693 1891.88 854.285C1891.88 854.765 1892.02 855.253 1892.31 855.749C1892.6 856.229 1893.02 856.629 1893.58 856.949C1894.13 857.269 1894.78 857.429 1895.53 857.429L1901 857.429L1901 859.973L1883.36 859.973ZM1901.24 842.472C1901.24 843.992 1900.79 845.04 1899.9 845.616C1899 846.176 1897.75 846.456 1896.15 846.456L1889.98 846.456L1889.98 843.864L1895.5 843.864C1896.42 843.864 1897.13 843.816 1897.64 843.72C1898.14 843.608 1898.5 843.4 1898.74 843.096C1898.98 842.776 1899.1 842.304 1899.1 841.68C1899.1 841.232 1898.98 840.8 1898.72 840.384C1898.46 839.968 1898.12 839.632 1897.69 839.376C1897.24 839.104 1896.75 838.968 1896.22 838.968L1889.98 838.968L1889.98 836.4L1901 836.4L1901 838.512L1899.39 838.8C1900.02 839.2 1900.48 839.704 1900.78 840.312C1901.09 840.904 1901.24 841.624 1901.24 842.472ZM1901.24 826.424C1901.24 827.32 1901.02 828.128 1900.59 828.848C1900.14 829.552 1899.63 830.04 1899.06 830.312L1901 830.36L1901 832.856L1883.36 832.856L1883.36 830.312L1890.15 830.312L1892.02 830.432C1891.38 830.16 1890.84 829.632 1890.39 828.848C1889.93 828.048 1889.7 827.184 1889.7 826.256C1889.7 825.168 1889.94 824.224 1890.44 823.424C1890.92 822.608 1891.6 821.984 1892.48 821.552C1893.34 821.12 1894.35 820.904 1895.5 820.904C1896.67 820.904 1897.69 821.16 1898.55 821.672C1899.42 822.168 1900.08 822.84 1900.54 823.688C1901.01 824.52 1901.24 825.432 1901.24 826.424ZM1899.08 826.856C1899.08 825.816 1898.75 825.016 1898.1 824.456C1897.42 823.896 1896.56 823.616 1895.5 823.616C1894.43 823.616 1893.57 823.896 1892.91 824.456C1892.24 825 1891.9 825.8 1891.9 826.856C1891.9 827.768 1892.22 828.536 1892.86 829.16C1893.49 829.784 1894.31 830.096 1895.34 830.096L1895.5 830.096C1896.19 830.096 1896.81 829.952 1897.35 829.664C1897.9 829.36 1898.32 828.968 1898.62 828.488C1898.93 827.992 1899.08 827.448 1899.08 826.856Z" fill="black" fill-opacity="0.5"/>
<defs>
<filter id="filter0_d_9_37" x="590" y="855" width="770" height="304" filterUnits="userSpaceOnUse" color-interpolation-filters="sRGB">
<feFlood flood-opacity="0" result="BackgroundImageFix"/>
<feColorMatrix in="SourceAlpha" type="matrix" values="0 0 0 0 0 0 0 0 0 0 0 0 0 0 0 0 0 0 127 0" result="hardAlpha"/>
<feMorphology radius="5" operator="dilate" in="SourceAlpha" result="effect1_dropShadow_9_37"/>
<feOffset dy="4"/>
<feGaussianBlur stdDeviation="35"/>
<feComposite in2="hardAlpha" operator="out"/>
<feColorMatrix type="matrix" values="0 0 0 0 0.0745098 0 0 0 0 0.0745098 0 0 0 0 0.223529 0 0 0 0.1 0"/>
<feBlend mode="normal" in2="BackgroundImageFix" result="effect1_dropShadow_9_37"/>
<feBlend mode="normal" in="SourceGraphic" in2="effect1_dropShadow_9_37" result="shape"/>
</filter>
<filter id="filter1_d_9_37" x="1854" y="799" width="79" height="121" filterUnits="userSpaceOnUse" color-interpolation-filters="sRGB">
<feFlood flood-opacity="0" result="BackgroundImageFix"/>
<feColorMatrix in="SourceAlpha" type="matrix" values="0 0 0 0 0 0 0 0 0 0 0 0 0 0 0 0 0 0 127 0" result="hardAlpha"/>
<feMorphology radius="3" operator="dilate" in="SourceAlpha" result="effect1_dropShadow_9_37"/>
<feOffset dy="4"/>
<feGaussianBlur stdDeviation="5"/>
<feComposite in2="hardAlpha" operator="out"/>
<feColorMatrix type="matrix" values="0 0 0 0 0 0 0 0 0 0 0 0 0 0 0 0 0 0 0.1 0"/>
<feBlend mode="normal" in2="BackgroundImageFix" result="effect1_dropShadow_9_37"/>
<feBlend mode="normal" in="SourceGraphic" in2="effect1_dropShadow_9_37" result="shape"/>
</filter>
<linearGradient id="paint0_linear_9_37" x1="352" y1="65.5" x2="1599.5" y2="755" gradientUnits="userSpaceOnUse">
<stop stop-color="#F1F4FD"/>
<stop offset="1" stop-color="#131339"/>
</linearGradient>
</defs>
</svg>
