  <svg xmlns="http://www.w3.org/2000/svg" width="26" height="23" viewBox="0 0 26 23" fill="none" id="greek_omega">
    <path d="M0.178082 23V18.5314H1.33562L3.0274 21.0286H7.47945V19.5829L5.60959 18.8929C3.78424 18.181 2.38927 17.0802 1.42466 15.5907C0.474884 14.0902 -1.80456e-06 12.1791 0 9.85714C-1.80456e-06 7.09716 1.20205 4.7643 3.60616 2.85857C6.01027 0.952879 9.14154 2.29912e-05 13 0C16.8584 2.29912e-05 19.9897 0.952879 22.3938 2.85857C24.7979 4.7643 26 7.09716 26 9.85714C26 12.1791 25.5177 14.0902 24.5531 15.5907C23.6033 17.0802 22.2157 18.181 20.3904 18.8929L18.5205 19.5829V21.0286H22.9726L24.6644 18.5314H25.8219V23H14.9589V19.1886C17.3927 18.4 19.129 17.1295 20.1678 15.3771C21.2066 13.6248 21.726 11.7848 21.726 9.85714C21.726 7.7543 21.0137 5.87049 19.589 4.20571C18.1644 2.54097 15.968 1.70859 13 1.70857C10.032 1.70859 7.83561 2.54097 6.41096 4.20571C4.98629 5.87049 4.27397 7.7543 4.27397 9.85714C4.27397 11.7848 4.79337 13.6248 5.83219 15.3771C6.871 17.1295 8.6073 18.4 11.0411 19.1886V23H0.178082Z" fill="#FF5F55"/>
  </svg>